<svg width="637px" height="636px" viewBox="368 157 637 636" version="1.1" xmlns="http://www.w3.org/2000/svg" xmlns:xlink="http://www.w3.org/1999/xlink">
    <!-- Generator: Sketch 39.1 (31720) - http://www.bohemiancoding.com/sketch -->
    <desc>Created with Sketch.</desc>
    <defs></defs>
    <g id="Group" stroke="none" stroke-width="1" fill="none" fill-rule="evenodd" transform="translate(368.000000, 157.000000)">
        <g id="Icon" transform="translate(55.578947, 0.000000)">
            <g id="Chat-Top" transform="translate(83.152999, 0.000000)">
                <path d="M0,77.8348468 C0,34.8478479 34.8821335,0 77.9313867,0 L285.862983,0 C328.903299,0 363.79437,34.842443 363.79437,77.8348468 L363.79437,153.019307 C363.79437,196.006306 328.912236,230.854154 285.862983,230.854154 L77.9313867,230.854154 C34.8910703,230.854154 0,196.011711 0,153.019307 L0,77.8348468 L0,77.8348468 Z M280.641371,230.854154 L220.875153,230.854154 L259.853121,385.189234 L280.641371,230.854154 Z" id="Combined-Shape" fill="#F79220"></path>
                <ellipse id="Oval-1" fill="#FFFFFF" cx="103.941248" cy="111.536277" rx="25.9853121" ry="25.938669"></ellipse>
                <ellipse id="Oval-1-Copy" fill="#FFFFFF" cx="181.897185" cy="111.536277" rx="25.9853121" ry="25.938669"></ellipse>
                <ellipse id="Oval-1-Copy-2" fill="#FFFFFF" cx="259.853121" cy="111.536277" rx="25.9853121" ry="25.938669"></ellipse>
            </g>
            <g id="Chat-Bottom" transform="translate(0.000000, 186.758417)">
                <path d="M0,21.999493 C0,9.8495085 9.85817393,1.70530257e-13 22.0008828,1.70530257e-13 L248.246363,1.70530257e-13 C260.397115,1.70530257e-13 270.247246,9.84159552 270.247246,21.999493 L270.247246,151.789589 C270.247246,163.939574 260.389072,173.789082 248.246363,173.789082 L22.0008828,173.789082 C9.85013073,173.789082 0,163.947487 0,151.789589 L0,21.999493 Z M105.240514,224.369487 L106.53978,173.789082 L62.3647491,173.789082 L105.240514,224.369487 Z" id="Combined-Shape" fill="#FFFFFF"></path>
                <ellipse id="Oval-4" fill="#F79220" cx="81.8537332" cy="86.894541" rx="19.4889841" ry="19.4540017"></ellipse>
                <ellipse id="Oval-4-Copy" fill="#F79220" cx="141.619951" cy="86.894541" rx="19.4889841" ry="19.4540017"></ellipse>
                <ellipse id="Oval-4-Copy-2" fill="#F79220" cx="201.386169" cy="86.894541" rx="19.4889841" ry="19.4540017"></ellipse>
            </g>
        </g>
        <g id="Text-Logo" transform="translate(0.000000, 427.179739)">
            <g id="Status" transform="translate(201.000000, 100.000000)">
                <ellipse id="Oval-7" fill="#FFFFFF" cx="182.842105" cy="67.8529412" rx="20.8421053" ry="20.8529412"></ellipse>
                <path d="M52.5789474,29.8820089 C49.5877043,27.0355035 46.9583447,25.0333305 44.6907895,23.87543 C42.2784967,22.6210378 39.4802791,21.993851 36.2960526,21.993851 C33.9320057,21.993851 31.7127297,22.7416506 29.6381579,24.2372721 C27.4670944,25.7328936 26.3815789,27.710944 26.3815789,30.1714826 C26.3815789,33.6451842 28.7455904,36.3951567 33.4736842,38.4214826 C38.2982697,40.4960544 43.2433957,42.4982274 48.3092105,44.4280616 C53.4232712,46.4543875 57.8618233,49.6626887 61.625,54.0530616 C65.3399309,58.4916803 67.1973684,65.004773 67.1973684,73.5925353 C67.1973684,84.5925903 63.8925769,93.0354883 57.2828947,98.9214826 C50.7214584,104.855723 42.3509281,107.822798 32.1710526,107.822798 C26.2850583,107.822798 20.5921328,106.809651 15.0921053,104.783325 C9.54383191,102.756999 4.67107362,99.7175555 0.473684211,95.6649037 L14.0789474,76.2701668 C18.4210743,81.7701943 24.1381224,84.5201668 31.2302632,84.5201668 C34.0767686,84.5201668 36.8026186,83.7241222 39.4078947,82.1320089 C41.9649251,80.5881416 43.2434211,78.3206204 43.2434211,75.3293774 C43.2434211,71.8074299 40.855287,69.0092123 36.0789474,66.9346405 C33.9561297,66.0179693 31.495628,64.9806989 28.6973684,63.8227984 L24.9342105,62.3030616 L21.0986842,60.7109563 C15.9363777,58.5881387 11.5219482,55.3798374 7.85526316,51.0859563 C4.18857816,46.840321 2.35526316,40.4960862 2.35526316,32.0530616 C2.35526316,25.588117 3.9473525,19.9434366 7.13157895,15.118851 C10.2193137,10.3425114 14.3442724,6.67588138 19.5065789,4.11885105 C24.5241479,1.61006658 29.9034801,0.355693154 35.6447368,0.355693154 C40.9517809,0.355693154 46.1622551,1.36884092 51.2763158,3.39516684 C56.4868682,5.51798447 61.0460331,8.4609375 64.9539474,12.2241142 L52.5789474,29.8820089 Z M87.5131579,51.0859563 L72.2434211,51.0859563 L77.4539474,31.2570089 L87.5131579,31.2570089 L87.5131579,2.74385105 L110.598684,2.88858789 L110.598684,31.2570089 L125.940789,31.2570089 L120.802632,51.0859563 L110.598684,51.0859563 L110.598684,75.618851 C110.598684,82.1802874 114.69952,85.4609563 122.901316,85.4609563 C125.554838,85.4609563 127.581133,85.147363 128.980263,84.5201668 L122.322368,107.533325 C121.116222,107.726308 119.934216,107.822798 118.776316,107.822798 C111.877158,107.822798 106.135988,106.71316 101.552632,104.493851 C96.9210295,102.274542 93.4232574,98.9215051 91.0592105,94.4346405 C88.6951636,89.9960218 87.5131579,84.3272189 87.5131579,77.4280616 L87.5131579,51.0859563 Z M172.526316,51.8096405 C175.517559,50.1692814 178.677615,49.3491142 182.006579,49.3491142 C185.432035,49.3491142 188.616213,50.1692814 191.559211,51.8096405 C194.550454,53.4982455 196.938588,55.7657666 198.723684,58.6122721 C200.508781,61.4587776 201.401316,64.5705885 201.401316,67.9477984 C201.401316,73.0618591 199.471511,77.4762886 195.611842,81.1912195 C191.80042,84.8579045 187.265377,86.6912195 182.006579,86.6912195 C176.796027,86.6912195 172.285107,84.8579045 168.473684,81.1912195 C164.614016,77.4762886 162.684211,73.0618591 162.684211,67.9477984 C162.684211,64.5705885 163.576745,61.4587776 165.361842,58.6122721 C167.146939,55.7657666 169.535073,53.4982455 172.526316,51.8096405 L172.526316,51.8096405 Z M201.473684,105.434641 L224.414474,105.651746 L224.486842,67.9477984 C224.486842,62.3030334 223.353082,57.044314 221.085526,52.1714826 C218.866217,47.4433888 215.730283,43.2460624 211.677632,39.5793774 C207.817963,36.0091841 203.282921,33.2592116 198.072368,31.3293774 C192.861816,29.3995432 187.506606,28.4346405 182.006579,28.4346405 C176.458306,28.4346405 171.103096,29.4236657 165.940789,31.4017458 C160.778483,33.2833341 156.243441,36.0091841 152.335526,39.5793774 C148.379366,43.1495707 145.267555,47.3468971 143,52.1714826 C140.732445,57.044314 139.598684,62.3030334 139.598684,67.9477984 C139.598684,75.425906 141.552612,82.204347 145.460526,88.2833247 C149.320195,94.2658108 154.530669,98.9938337 161.092105,102.467535 C167.653542,105.892991 174.624963,107.605693 182.006579,107.605693 C187.603098,107.605693 192.958308,106.616668 198.072368,104.638588 C198.796056,104.397359 199.929817,103.93903 201.473684,103.263588 L201.473684,105.434641 Z M246.756579,51.0859563 L231.486842,51.0859563 L236.697368,31.2570089 L246.756579,31.2570089 L246.756579,2.74385105 L269.842105,2.88858789 L269.842105,31.2570089 L285.184211,31.2570089 L280.046053,51.0859563 L269.842105,51.0859563 L269.842105,75.618851 C269.842105,82.1802874 273.942941,85.4609563 282.144737,85.4609563 C284.798259,85.4609563 286.824554,85.147363 288.223684,84.5201668 L281.565789,107.533325 C280.359643,107.726308 279.177637,107.822798 278.019737,107.822798 C271.12058,107.822798 265.379409,106.71316 260.796053,104.493851 C256.164451,102.274542 252.666678,98.9215051 250.302632,94.4346405 C247.938585,89.9960218 246.756579,84.3272189 246.756579,77.4280616 L246.756579,51.0859563 Z M322,74.4609563 L322,31.3293774 L298.842105,31.3293774 L298.842105,74.4609563 C298.842105,95.4479034 309.504279,106.520161 330.828947,107.678062 L332.131579,107.678062 C353.456247,106.520161 364.118421,95.4479034 364.118421,74.4609563 L364.118421,31.3293774 L340.960526,31.3293774 L340.960526,74.4609563 C340.960526,82.4215224 338.017573,86.498236 332.131579,86.6912195 L330.828947,86.6912195 C324.942953,86.498236 322,82.4215224 322,74.4609563 L322,74.4609563 Z M386.460526,82.1320089 C391.043883,86.7153652 396.640318,89.0070089 403.25,89.0070089 C410.149157,89.0070089 413.598684,86.9807134 413.598684,82.9280616 C413.598684,80.8052439 411.693002,79.2372772 407.881579,78.2241142 C405.179811,77.5969181 400.885994,76.5114026 395,74.9675353 C390.22366,73.713143 386.195192,71.3973767 382.914474,68.0201668 C379.682001,64.6912028 378.065789,59.5772189 378.065789,52.6780616 C378.065789,47.3710175 379.392531,42.8842203 382.046053,39.2175353 C384.747821,35.5508503 388.245593,32.8491229 392.539474,31.1122721 C396.929847,29.3271755 401.730237,28.4346405 406.940789,28.4346405 C409.883787,28.4346405 412.874985,28.8447241 415.914474,29.6649037 C419.195192,30.6780666 422.138145,31.9324401 424.743421,33.4280616 C427.589927,35.0201748 430.098673,36.8052447 432.269737,38.7833247 L419.532895,51.4477984 C415.817964,48.6495388 411.765373,47.25043 407.375,47.25043 C402.116202,47.25043 399.486842,48.7219065 399.486842,51.6649037 C399.486842,54.3184257 401.44077,56.1758633 405.348684,57.2372721 C409.642565,58.3951726 413.960505,59.4806881 418.302632,60.493851 C423.078971,61.6999974 427.059195,63.9192735 430.243421,67.1517458 C433.475893,70.4324639 435.092105,75.594693 435.092105,82.6385879 C435.092105,87.8973861 433.692996,92.4324285 430.894737,96.243851 C428.096477,100.103519 424.35748,102.974105 419.677632,104.855693 C414.997784,106.833773 410.149148,107.822798 405.131579,107.822798 C400.93419,107.822798 397.146947,107.485082 393.769737,106.809641 C390.392527,106.182444 387.232471,105.121052 384.289474,103.62543 C381.249985,102.129808 378.065806,100.127636 374.736842,97.618851 L386.460526,82.1320089 Z" fill="#F79220"></path>
            </g>
            <g id="Bet-Your">
                <ellipse id="Oval-8" fill="#F79220" cx="267.526316" cy="49.5359477" rx="18.5263158" ry="18.5359477"></ellipse>
                <path d="M19.8108553,16.0707237 L19.8108553,31.6480263 L24.8042763,31.6480263 C27.8799496,31.6480263 30.1957159,30.9424413 31.7516447,29.53125 C33.3075736,28.1924275 34.0855263,26.2384997 34.0855263,23.6694079 C34.0855263,20.9555785 33.1085624,19.0016507 31.1546053,17.8075658 C29.1644637,16.6496653 26.8125136,16.0707237 24.0986842,16.0707237 L19.8108553,16.0707237 Z M0,0.981907895 L22.6332237,0.981907895 C28.3141731,0.981907895 33.5246474,1.61512525 38.2648026,2.88157895 C42.8964047,4.11184826 46.6776169,6.24669533 49.6085526,9.28618421 C52.4671196,12.2533043 53.8963816,16.2154357 53.8963816,21.1726974 C53.8963816,24.9358741 52.9556015,28.2105124 51.0740132,30.9967105 C49.1924248,33.8190931 46.6414635,35.9177563 43.4210526,37.2927632 L43.4210526,37.5641447 C45.2664566,38.2878326 46.9851894,39.2647965 48.5773026,40.4950658 C50.0970471,41.6891507 51.4539414,43.1184127 52.6480263,44.7828947 C53.7697425,46.375008 54.6562467,48.1661085 55.3075658,50.15625 C55.9227004,52.1825759 56.2302632,54.317423 56.2302632,56.5608553 C56.2302632,63.0016769 53.8421291,68.1759673 49.0657895,72.0838816 C44.2532654,76.0279802 36.9803118,78 27.2467105,78 L0,78 L0,0.981907895 Z M19.8108553,46.7911184 L19.8108553,62.8569079 L25.0756579,62.8569079 C32.6381957,62.8569079 36.4194079,60.2335789 36.4194079,54.9868421 C36.4194079,51.6940625 35.4062601,49.5049396 33.3799342,48.4194079 C31.3897927,47.3338762 28.5312686,46.7911184 24.8042763,46.7911184 L19.8108553,46.7911184 Z M100.186184,37.78125 C101.488822,38.5773066 102.755257,39.6990059 103.985526,41.1463816 L82.7092105,41.1463816 C83.9394798,39.6990059 85.2059145,38.5773066 86.5085526,37.78125 C88.6434317,36.5509807 90.9230142,35.9358553 93.3473684,35.9358553 C95.7717226,35.9358553 98.0513051,36.5509807 100.186184,37.78125 L100.186184,37.78125 Z M114.677961,28.6085526 C111.783209,25.8947233 108.508571,23.8322439 104.853947,22.4210526 C101.163139,20.973677 97.3276515,20.25 93.3473684,20.25 C89.3670854,20.25 85.5135055,20.973677 81.7865132,22.4210526 C78.168074,23.8322439 74.9115276,25.9128152 72.0167763,28.6628289 C69.1582094,31.3404739 66.9148108,34.4884687 65.2865132,38.1069079 C63.6582155,41.6891626 62.8440789,45.5970183 62.8440789,49.8305921 C62.8440789,55.4753572 64.255249,60.5591879 67.0776316,65.0822368 C69.8276453,69.6052858 73.5726737,73.1693949 78.3128289,75.7746711 C82.9444311,78.3437628 87.9558941,79.6282895 93.3473684,79.6282895 C97.3276515,79.6282895 101.163139,78.9046125 104.853947,77.4572368 C107.603961,76.3355207 110.31775,74.6891556 112.995395,72.5180921 L103.659868,59.1661184 L103.551316,59.3289474 L103.388487,59.4917763 L103.225658,59.7088816 L103.117105,59.8174342 C100.367092,62.567448 97.1105451,63.9424342 93.3473684,63.9424342 C89.6203761,63.9424342 86.3638297,62.567448 83.5776316,59.8174342 C81.3703837,57.6101863 80.0496732,54.9868573 79.6154605,51.9473684 L116.957566,51.9473684 L116.957566,51.8388158 L123.687829,51.8388158 L123.796382,50.9161184 C123.832566,50.6990121 123.850658,50.5000009 123.850658,50.3190789 L123.850658,49.8305921 C123.850658,45.6693871 123.036521,41.7615314 121.408224,38.1069079 C119.779926,34.4161 117.536527,31.2500132 114.677961,28.6085526 L114.677961,28.6085526 Z M141.916776,37.2384868 L130.464474,37.2384868 L134.372368,22.3667763 L141.916776,22.3667763 L141.916776,0.981907895 L159.230921,1.09046053 L159.230921,22.3667763 L170.7375,22.3667763 L166.883882,37.2384868 L159.230921,37.2384868 L159.230921,55.6381579 C159.230921,60.5592351 162.306548,63.0197368 168.457895,63.0197368 C170.448036,63.0197368 171.967758,62.7845418 173.017105,62.3141447 L168.023684,79.5740132 C167.119074,79.7187507 166.23257,79.7911184 165.364145,79.7911184 C160.189777,79.7911184 155.883899,78.9588899 152.446382,77.2944079 C148.97268,75.6299259 146.349351,73.1151484 144.576316,69.75 C142.803281,66.421036 141.916776,62.1694338 141.916776,56.9950658 L141.916776,37.2384868 Z M246.002961,0.981907895 L224.075329,0.981907895 L212.188816,23.7236842 L200.248026,0.981907895 L178.157566,0.981907895 L202.364803,42.5032895 L202.364803,78 L222.338487,78 L222.338487,42.3404605 L246.002961,0.981907895 Z M252.019737,75.8832237 C247.09866,73.2779475 243.190804,69.7138384 240.296053,65.1907895 C237.365117,60.6315562 235.899671,55.5296335 235.899671,49.8848684 C235.899671,45.6512946 236.749991,41.7072551 238.450658,38.0526316 C240.151324,34.398008 242.485183,31.2319213 245.452303,28.5542763 C248.455607,25.840447 251.874981,23.7598757 255.710526,22.3125 C259.618441,20.8651243 263.616756,20.1414474 267.705592,20.1414474 C271.830613,20.1414474 275.84702,20.8651243 279.754934,22.3125 C283.554295,23.6875069 286.973669,25.7499862 290.013158,28.5 C293.016462,31.2500137 295.350321,34.4341924 297.014803,38.0526316 C298.715469,41.7072551 299.565789,45.6512946 299.565789,49.8848684 C299.565789,54.190811 298.733561,58.1348505 297.069079,61.7171053 C295.404597,65.3355444 293.052647,68.537815 290.013158,71.3240132 C286.937485,74.0740269 283.518111,76.1545982 279.754934,77.5657895 C275.955573,79.0493495 271.939166,79.7911184 267.705592,79.7911184 C262.16938,79.7911184 256.940814,78.4884999 252.019737,75.8832237 L252.019737,75.8832237 Z M257.555921,59.8717105 C260.414488,62.6579087 263.797678,64.0509868 267.705592,64.0509868 C271.649691,64.0509868 275.050973,62.6579087 277.909539,59.8717105 C280.804291,57.0855124 282.251645,53.7565983 282.251645,49.8848684 C282.251645,47.351961 281.582244,45.0181028 280.243421,42.8832237 C278.904599,40.7483446 277.113498,39.0477037 274.870066,37.78125 C272.662818,36.5147963 270.274684,35.8815789 267.705592,35.8815789 C265.208869,35.8815789 262.838827,36.5147963 260.595395,37.78125 C258.351962,39.0477037 256.560862,40.7483446 255.222039,42.8832237 C253.883217,45.0181028 253.213816,47.351961 253.213816,49.8848684 C253.213816,53.7565983 254.66117,57.0855124 257.555921,59.8717105 L257.555921,59.8717105 Z M323.548026,54.7697368 L323.548026,22.4210526 L306.179605,22.4210526 L306.179605,54.7697368 C306.179605,70.5099471 314.176236,78.8141404 330.169737,79.6825658 L331.146711,79.6825658 C347.140212,78.8141404 355.136842,70.5099471 355.136842,54.7697368 L355.136842,22.4210526 L337.768421,22.4210526 L337.768421,54.7697368 C337.768421,60.7401614 335.561206,63.7976966 331.146711,63.9424342 L330.169737,63.9424342 C325.755241,63.7976966 323.548026,60.7401614 323.548026,54.7697368 L323.548026,54.7697368 Z M390.245724,20.5213816 C389.087823,20.3404596 387.911848,20.2319081 386.717763,20.1957237 L385.740789,20.1957237 C369.747288,20.9917803 361.750658,29.2959736 361.750658,45.1085526 L361.750658,78 L379.119079,78 L379.119079,45.1085526 C379.119079,39.138128 381.326294,36.0625009 385.740789,35.8815789 L386.717763,35.8815789 C388.165139,35.9539477 389.341114,36.2976943 390.245724,36.9128289 L390.245724,20.5213816 Z" fill="#FFFFFF"></path>
            </g>
        </g>
    </g>
</svg>
